<svg xmlns="http://www.w3.org/2000/svg" clip-rule="evenodd" fill-rule="evenodd" image-rendering="optimizeQuality" shape-rendering="geometricPrecision" text-rendering="geometricPrecision" viewBox="0 0 80.63 68.8" style="fill: rgb(255, 217, 100);" original_string_length="854" role="img"><g><path d="M38.38 32.83L45.99 28.48 53.47 24.14 61.07 19.79 61.07 11.1 53.47 15.45 45.99 19.79 38.38 24.14 30.9 28.48z" style="fill: inherit;"></path><path d="M7.97 50.09L25.23 59.99 32.71 64.33 40.31 68.8 47.8 64.33 55.4 59.99 80.63 45.5 80.63 36.81 55.4 51.3 47.8 55.64 40.31 59.99 32.71 55.64 25.23 51.3 7.97 41.4 7.97 32.71 25.23 42.6 32.71 46.95 40.31 51.3 47.8 46.95 55.4 42.6 80.63 28 80.63 19.31 55.4 33.92 47.8 38.26 40.31 42.6 32.71 38.26 25.23 33.92 0 19.31 0 45.5z" style="fill: inherit;"></path><path d="M22.69 23.78L30.17 19.31 37.78 14.97 48.64 8.69 48.64 0 37.78 6.27 30.17 10.62 22.69 14.97 15.09 19.31z" style="fill: inherit;"></path></g></svg>